<?xml version="1.0" standalone="no"?>
<!DOCTYPE svg PUBLIC "-//W3C//DTD SVG 20010904//EN"
 "http://www.w3.org/TR/2001/REC-SVG-20010904/DTD/svg10.dtd">
<svg version="1.0" xmlns="http://www.w3.org/2000/svg"
 width="819.000000pt" height="819.000000pt" viewBox="0 0 819.000000 819.000000"
 preserveAspectRatio="xMidYMid meet">

<g transform="translate(0.000000,819.000000) scale(0.100000,-0.100000)"
fill="#000000" stroke="none">
<path d="M4500 6570 c-73 -9 -146 -48 -197 -102 -40 -44 -83 -137 -83 -181 0
-29 -10 -43 -37 -51 -12 -4 -23 -15 -25 -24 -5 -20 11 -62 24 -62 4 0 8 -48 8
-107 1 -60 5 -128 11 -153 25 -116 25 -113 -21 -145 -55 -38 -136 -129 -178
-198 -64 -106 -85 -188 -112 -442 -10 -91 -45 -341 -55 -390 -3 -11 -20 -30
-39 -43 -18 -13 -53 -46 -77 -75 -42 -49 -44 -55 -43 -113 0 -60 0 -62 -33
-80 -70 -37 -111 -108 -147 -252 -32 -133 -51 -172 -196 -415 -214 -358 -206
-346 -275 -372 -33 -12 -72 -28 -88 -35 -24 -12 -30 -11 -50 7 -44 41 -111 42
-160 3 -24 -19 -25 -22 -11 -48 23 -45 18 -57 -38 -77 -29 -10 -70 -29 -91
-42 -64 -40 -78 -43 -121 -21 -28 14 -51 19 -78 15 -56 -7 -68 -22 -68 -78 0
-32 -4 -49 -12 -49 -7 0 -43 -5 -80 -10 -97 -14 -167 -52 -208 -111 -18 -27
-54 -62 -79 -78 -72 -44 -147 -117 -170 -164 -15 -31 -21 -63 -21 -109 0 -66
0 -66 -32 -77 -18 -5 -132 -26 -253 -46 -297 -49 -495 -86 -550 -105 l-30 -10
35 5 c58 8 314 33 515 50 105 9 276 25 380 36 294 31 674 58 960 69 143 5 319
12 390 15 230 9 1632 6 1880 -5 132 -5 447 -16 700 -25 253 -8 492 -17 530
-20 596 -43 834 -63 1015 -85 200 -25 300 -30 300 -14 0 13 -11 16 -130 35
-41 6 -154 26 -250 45 -96 18 -231 43 -300 54 -142 24 -189 32 -192 34 -2 0
-5 467 -8 1036 l-5 1035 -48 1 c-27 1 -53 6 -60 13 -13 13 -174 15 -179 2 -5
-15 -151 -17 -156 -3 -5 15 -173 17 -187 3 -6 -6 -35 -11 -65 -13 l-55 -3 -3
-1000 c-2 -549 -5 -1001 -8 -1004 -2 -3 -50 1 -107 8 -56 7 -195 16 -308 18
l-207 5 -5 41 c-9 66 -34 91 -103 100 -83 12 -142 35 -181 71 l-34 31 28 37
c15 21 60 79 99 130 102 132 234 331 284 426 29 57 48 82 60 82 24 0 50 26 50
51 0 12 -7 19 -20 19 -21 0 -213 76 -291 115 -34 18 -49 31 -49 45 0 11 2 20
5 20 3 0 39 -18 80 -40 75 -40 286 -133 289 -128 1 2 10 16 19 31 l18 28 -35
14 c-20 8 -38 15 -41 15 -8 0 -210 87 -255 110 -22 11 -40 24 -40 28 0 30 29
23 147 -35 112 -54 231 -100 237 -91 1 2 7 14 13 28 10 24 8 26 -61 52 -144
53 -241 99 -266 123 l-25 25 24 0 c13 0 47 -13 75 -29 47 -27 192 -89 242
-105 17 -5 23 -2 27 16 2 13 16 61 30 108 34 114 59 243 55 281 -7 69 -101 97
-200 59 -44 -16 -69 -35 -105 -76 l-49 -55 -87 35 c-48 20 -100 42 -116 50
-84 44 -415 125 -611 150 -110 14 -110 14 -51 103 63 95 197 363 227 457 l28
86 109 0 c59 0 116 4 126 9 10 6 30 28 45 50 30 44 24 41 176 61 84 11 144 24
187 41 35 13 46 75 41 236 -2 77 0 139 4 137 5 -3 8 -12 8 -21 0 -13 8 -14 47
-8 25 4 57 11 71 16 l25 9 -6 143 c-4 97 -13 172 -28 237 -33 140 -25 256 22
292 61 48 61 49 55 81 -8 38 -30 63 -61 71 -14 4 -35 17 -49 31 -21 21 -33 24
-102 24 -42 0 -86 -5 -97 -10 -10 -6 -51 -15 -91 -19 -104 -12 -194 -35 -216
-55 -24 -22 -25 -48 -5 -104 14 -40 14 -42 -8 -50 -12 -4 -36 -11 -53 -14
l-31 -6 -10 74 c-32 221 -184 344 -393 315z m85 -50 c-3 -5 -18 -10 -33 -10
-55 0 -146 -70 -182 -140 -11 -21 -27 -68 -36 -104 -13 -51 -20 -66 -33 -64
-12 3 -16 15 -15 55 3 98 79 212 169 254 42 20 141 26 130 9z m881 -135 c16
-40 19 -95 3 -95 -11 0 -37 55 -46 101 -8 43 24 39 43 -6z m-81 -43 c20 -55
21 -63 6 -60 -20 4 -50 63 -51 101 0 46 21 27 45 -41z m-107 -5 c11 -24 25
-61 32 -83 6 -21 21 -58 32 -82 11 -23 25 -72 31 -108 13 -77 8 -84 -80 -110
-84 -24 -112 -17 -140 36 -74 142 -132 302 -120 334 10 26 27 18 27 -14 0 -42
20 -129 32 -136 5 -3 28 1 51 9 23 8 68 18 101 20 32 3 60 8 63 11 3 3 -11 31
-30 63 -59 99 -61 103 -38 103 14 0 26 -13 39 -43z m262 1 c0 -9 -4 -20 -10
-23 -6 -4 -10 9 -10 32 0 28 3 34 10 23 5 -8 10 -23 10 -32z m-331 -30 c25
-73 25 -78 7 -78 -8 0 -20 24 -30 65 -19 75 -19 75 -7 75 5 0 19 -28 30 -62z
m-68 -12 c13 -58 8 -86 -15 -86 -9 0 -17 20 -25 63 -14 81 -14 77 8 77 15 0
22 -12 32 -54z m-840 -140 c86 -38 163 -50 321 -50 82 -1 148 -4 148 -8 0 -26
-340 -21 -429 7 -55 17 -121 54 -121 68 0 13 26 8 81 -17z m-61 -86 c0 -108
129 -157 385 -147 161 6 179 14 203 85 25 77 45 81 27 5 -8 -32 -14 -61 -15
-65 0 -9 -129 -48 -157 -48 -11 0 -25 -6 -31 -13 -14 -16 -36 -106 -29 -114
11 -11 99 20 129 45 17 14 44 46 60 71 28 43 29 44 25 16 -2 -16 -7 -39 -12
-50 -5 -16 -5 -17 4 -5 21 30 22 0 1 -49 -25 -58 -109 -142 -165 -165 -84 -36
-290 -10 -348 43 -40 36 -54 67 -72 157 -9 44 -18 87 -21 97 -3 9 -1 17 3 17
5 0 17 -22 27 -49 19 -53 46 -84 89 -100 44 -17 48 -14 41 32 -12 75 -18 82
-92 113 -78 32 -83 41 -74 119 5 48 22 52 22 5z m790 9 c0 -6 25 -49 56 -96
30 -47 53 -91 50 -98 -3 -10 -41 -14 -138 -17 -73 -2 -134 -3 -135 -3 -1 0 6
46 16 100 l17 100 60 11 c32 7 62 12 67 13 4 1 7 -4 7 -10z m200 -355 c8 -88
9 -169 3 -219 l-8 -80 -81 -3 c-80 -3 -82 -2 -88 23 -6 24 -9 25 -90 25 -45 0
-85 3 -88 6 -3 3 -3 17 1 32 7 25 15 29 107 49 54 12 120 23 147 23 l47 0 1
-62 1 -63 9 55 c5 30 6 126 3 212 -6 151 0 207 17 161 4 -12 13 -83 19 -159z
m-236 98 c2 -4 -13 -27 -34 -52 l-38 -45 7 41 c4 22 11 46 15 52 8 13 42 16
50 4z m61 -37 c-51 -44 -59 -44 -38 0 14 29 22 35 47 35 l31 -1 -40 -34z
m-795 -110 c14 -14 44 -38 67 -53 24 -15 43 -30 43 -33 0 -4 -19 -14 -42 -24
-52 -20 -103 -58 -125 -91 -24 -38 -11 -38 46 1 29 19 71 40 94 46 62 17 161
5 247 -29 93 -37 267 -72 362 -72 l71 0 -6 -93 c-5 -84 -29 -178 -43 -165 -3
3 1 35 7 72 7 36 10 69 6 72 -3 3 -20 -10 -38 -30 -30 -34 -86 -72 -95 -64 -2
2 10 24 26 48 16 24 27 46 25 48 -2 2 -16 -5 -32 -16 -56 -39 -253 -121 -253
-104 0 4 27 24 60 45 33 22 69 54 80 72 25 40 26 53 3 33 -67 -58 -343 -137
-343 -98 0 6 8 10 18 10 24 0 113 43 168 81 49 33 54 49 7 26 -34 -17 -229
-65 -295 -73 -27 -3 -48 -8 -48 -12 0 -4 12 -20 26 -35 14 -16 24 -31 21 -33
-10 -10 -101 41 -119 67 -11 14 -25 47 -32 75 l-13 49 -13 -30 c-6 -17 -10
-57 -8 -91 5 -75 36 -128 106 -178 46 -34 68 -42 187 -70 l60 -14 -56 -1 c-73
-1 -202 32 -259 67 -24 15 -60 48 -79 72 -32 42 -34 43 -27 15 10 -40 51 -102
94 -142 20 -18 32 -36 28 -40 -4 -4 -36 -9 -72 -11 -74 -5 -74 -19 -1 -47 38
-14 49 -14 105 -1 34 8 64 11 67 7 6 -11 -151 -142 -235 -197 -72 -46 -139
-79 -146 -71 -3 3 2 22 10 43 16 43 28 134 51 385 24 264 86 438 196 551 31
32 61 58 66 58 5 0 20 -11 33 -25z m161 -784 c-21 -39 -199 -195 -301 -264
-57 -39 -145 -88 -195 -110 -49 -21 -92 -41 -95 -44 -3 -3 27 -3 65 0 123 10
303 72 405 138 24 16 31 18 21 6 -27 -34 -178 -128 -256 -159 -67 -26 -97 -32
-185 -35 -134 -6 -150 3 -131 68 20 67 83 124 146 134 58 8 134 38 260 102 99
50 145 80 220 142 57 47 60 48 46 22z m1859 -1339 l0 -984 -102 7 c-60 4 -106
12 -110 18 -8 13 -11 1930 -4 1938 3 3 53 5 111 5 l105 1 0 -985z m325 644 c0
-185 -1 -634 -3 -997 l-2 -662 -47 6 c-27 3 -74 9 -105 13 l-58 7 0 988 0 989
108 -5 107 -4 0 -335z m-2757 143 c141 -22 334 -30 387 -16 27 7 28 7 10 -5
-26 -18 -81 -40 -185 -73 -88 -28 -253 -95 -248 -101 2 -2 36 2 76 7 62 9 107
21 197 54 48 18 -88 -69 -172 -110 -50 -25 -95 -49 -98 -55 -16 -25 212 -1
282 30 25 11 48 19 50 17 14 -15 -227 -149 -389 -217 -94 -38 -101 -55 -21
-45 47 6 89 21 177 63 5 3 6 -1 2 -7 -10 -16 -283 -194 -408 -266 -64 -37 -97
-60 -86 -63 33 -7 243 60 342 109 55 27 102 49 105 49 16 0 -213 -148 -314
-203 -111 -60 -126 -66 -200 -72 -44 -3 -97 -8 -117 -11 -21 -3 -38 -2 -38 3
0 5 28 51 63 103 79 118 232 376 258 435 11 24 33 97 49 161 31 121 64 192
102 219 28 19 13 19 176 -6z m1732 -106 c-1 -40 -115 -303 -132 -303 -17 0 -7
34 36 118 25 48 50 107 56 132 14 52 18 60 31 60 5 0 9 -3 9 -7z m-510 -42
c103 -35 220 -88 220 -99 0 -4 -12 -23 -27 -41 -28 -33 -53 -40 -373 -116 -25
-6 -25 -6 -4 9 28 20 162 73 207 81 20 4 37 12 37 17 0 7 -58 9 -172 5 -160
-5 -182 -8 -285 -40 -62 -19 -113 -33 -113 -31 0 9 251 134 288 143 123 32
126 33 111 42 -37 24 -301 0 -364 -33 -20 -11 -20 -11 0 11 25 28 43 38 125
68 93 34 218 28 350 -16z m431 0 c-34 -37 -141 -213 -141 -232 0 -10 -33 -12
-43 -3 -10 11 62 140 106 190 36 41 91 84 108 84 3 0 -10 -18 -30 -39z m135
-7 c-3 -25 -26 -97 -51 -159 -25 -63 -45 -119 -45 -125 0 -5 -4 -10 -10 -10
-17 0 -11 25 24 109 19 44 43 114 53 155 20 83 39 103 29 30z m9 -119 c-4 -25
-9 -44 -12 -41 -2 2 -1 25 2 51 4 25 9 44 12 41 2 -2 1 -25 -2 -51z m-39 -131
c-8 -21 -15 -34 -15 -28 -1 15 20 76 25 71 2 -2 -2 -21 -10 -43z m-19 -66 c-3
-8 -6 -5 -6 6 -1 11 2 17 5 13 3 -3 4 -12 1 -19z m-604 -114 c3 -4 0 -23 -8
-43 -8 -20 -15 -45 -17 -56 -3 -17 -11 -20 -58 -20 -50 0 -55 -2 -58 -23 -2
-13 4 -33 14 -43 15 -17 16 -25 7 -47 -6 -15 -28 -69 -49 -119 -33 -80 -42
-93 -62 -93 -41 0 -62 -18 -62 -54 0 -19 7 -39 15 -46 37 -31 5 -80 -52 -80
-62 0 -81 -35 -44 -81 24 -30 18 -43 -55 -115 -65 -65 -80 -93 -98 -181 -8
-37 -17 -75 -20 -83 -5 -13 -68 -15 -474 -16 -491 -1 -1165 -23 -1192 -39 -3
-2 -98 -6 -210 -9 l-205 -6 52 25 c82 38 609 165 688 165 36 0 65 4 65 9 0 6
-26 31 -57 58 -86 73 -109 100 -148 177 -53 106 -61 236 -13 236 5 0 7 -9 3
-19 -9 -30 12 -137 42 -215 23 -58 42 -86 108 -154 l80 -82 45 14 c25 7 43 17
40 22 -2 5 -23 22 -47 37 -75 50 -139 130 -172 215 -37 97 -49 174 -31 208 20
36 40 31 34 -8 -7 -44 19 -167 50 -234 26 -56 108 -157 159 -194 35 -26 97
-21 97 8 0 12 35 34 118 73 64 31 129 68 145 82 35 34 36 77 1 159 -15 37 -23
70 -20 84 4 14 41 49 89 86 45 34 121 96 168 138 47 41 128 111 179 155 l93
80 221 -3 c198 -3 600 19 615 33 6 7 17 6 24 -1z m160 -326 c-55 -100 -140
-246 -188 -323 -48 -77 -109 -180 -135 -230 -27 -49 -56 -99 -65 -110 -16 -19
-16 -19 -11 15 8 46 76 182 181 360 47 80 109 190 137 245 27 55 71 138 95
183 l46 84 20 -20 20 -20 -100 -184z m161 84 c-12 -20 -59 -104 -106 -187 -46
-82 -118 -202 -158 -265 -41 -63 -102 -162 -137 -220 -35 -57 -63 -99 -63 -92
0 21 56 124 151 279 118 191 309 523 309 536 0 7 5 6 12 -1 10 -10 9 -20 -8
-50z m-309 -1 c8 -14 -86 -201 -98 -194 -12 7 -2 95 19 156 14 41 19 47 44 47
16 0 31 -4 35 -9z m382 -18 c-3 -5 -40 -64 -82 -133 -43 -69 -87 -140 -97
-157 -37 -60 -30 -34 8 35 66 118 159 262 170 262 3 0 3 -3 1 -7z m-2007 -130
c0 -5 -22 -15 -48 -24 -26 -9 -84 -33 -130 -53 l-83 -36 3 37 c3 36 4 36 78
59 72 22 180 32 180 17z m88 -46 c24 -22 29 -39 10 -32 -7 3 -74 -20 -148 -51
-143 -60 -182 -69 -188 -44 -2 11 11 19 40 27 75 20 249 107 243 121 -6 16 11
7 43 -21z m70 -98 c2 -11 -12 -20 -45 -31 -26 -9 -91 -34 -144 -57 -88 -38
-167 -55 -144 -32 17 17 299 140 315 138 8 -1 16 -9 18 -18z m-678 -67 l0 -38
-197 -67 c-109 -37 -281 -96 -382 -132 -187 -66 -226 -75 -219 -52 7 21 77 53
300 136 201 76 271 103 418 167 74 32 80 31 80 -14z m720 -2 c0 -12 -10 -24
-22 -30 -13 -5 -52 -21 -88 -36 -36 -14 -91 -37 -123 -51 -59 -24 -84 -24 -56
1 8 7 64 34 124 60 61 26 119 53 129 61 27 20 36 19 36 -5z m31 -84 c-10 -12
-44 -29 -206 -101 -123 -55 -65 -11 77 59 117 58 151 69 129 42z m-741 -32 c0
-17 -98 -65 -170 -84 -25 -6 -173 -54 -329 -106 -157 -51 -286 -92 -289 -90
-16 17 53 55 148 81 36 9 81 25 100 35 19 10 80 32 135 48 109 33 347 116 373
131 20 11 32 5 32 -15z m35 -124 c3 -6 -4 -10 -17 -10 -33 0 -171 -38 -418
-113 -309 -94 -326 -90 -35 8 325 110 454 141 470 115z m-5 -91 c-35 -14 -244
-68 -248 -64 -2 1 34 14 80 28 120 37 150 45 173 45 16 1 16 -1 -5 -9z m-920
-63 c0 -8 -16 -38 -36 -67 -20 -30 -42 -66 -50 -81 -18 -34 -44 -27 -44 12 0
30 43 95 85 128 32 25 45 28 45 8z m590 -31 c-41 -14 -82 -25 -90 -24 -21 0
120 47 145 48 11 0 -14 -11 -55 -24z m-113 -31 c-3 -3 -12 -4 -19 -1 -8 3 -5
6 6 6 11 1 17 -2 13 -5z"/>
<path d="M5178 6161 l-67 -16 31 -70 c44 -101 52 -108 115 -101 28 3 64 11 79
16 25 10 26 13 21 63 -3 29 -13 69 -23 90 -16 33 -22 37 -53 36 -20 -1 -66 -9
-103 -18z"/>
<path d="M4396 5861 c11 -94 4 -87 100 -94 48 -3 90 -4 94 -2 8 5 34 125 28
130 -2 1 -53 5 -115 7 l-112 4 5 -45z"/>
<path d="M4775 5805 c-16 -14 -60 -37 -97 -51 -66 -26 -77 -39 -78 -86 0 -48
110 2 162 74 21 29 52 89 45 88 -1 -1 -15 -12 -32 -25z"/>
<path d="M4280 5799 c0 -6 14 -38 31 -70 22 -40 40 -61 56 -65 13 -4 26 -4 29
-1 3 3 3 30 -1 61 -6 48 -10 56 -29 56 -11 1 -32 7 -46 15 -31 17 -40 18 -40
4z"/>
<path d="M4415 5728 c4 -18 12 -41 17 -51 17 -34 104 -59 135 -39 6 4 15 30
18 57 l7 50 -44 0 c-23 0 -65 4 -91 8 l-49 9 7 -34z"/>
<path d="M6150 4095 c0 -209 4 -335 10 -335 5 0 7 7 4 15 -4 8 -1 15 5 15 6 0
11 -5 11 -11 0 -5 5 -7 10 -4 6 4 10 125 10 331 l0 324 -25 0 -25 0 0 -335z
m32 -294 c-1 -3 -7 0 -12 5 -7 7 -8 33 -3 70 l8 59 5 -65 c3 -36 4 -67 2 -69z"/>
<path d="M6484 4425 c3 -9 11 -48 17 -87 10 -66 9 -88 -7 -195 -4 -31 -3 -43
6 -43 8 0 11 -12 7 -37 -3 -21 -3 -29 1 -18 4 12 9 -9 13 -55 3 -41 5 42 5
185 l-1 260 -24 3 c-19 3 -22 0 -17 -13z m23 -307 c-3 -8 -6 -5 -6 6 -1 11 2
17 5 13 3 -3 4 -12 1 -19z"/>
<path d="M4129 3572 c-22 -19 -36 -38 -33 -44 5 -7 2 -8 -5 -4 -15 10 -53 -23
-44 -37 3 -5 1 -7 -4 -4 -6 4 -19 -1 -31 -11 -11 -9 -81 -69 -155 -132 l-135
-115 15 -28 c21 -41 27 -118 13 -162 -7 -21 -29 -56 -49 -78 -22 -25 -29 -38
-18 -34 10 4 45 14 80 23 34 8 122 37 197 64 189 68 401 141 428 147 16 4 21
10 17 21 -3 9 -3 13 1 9 4 -4 14 -1 22 6 13 9 14 9 8 0 -4 -8 -1 -13 8 -13 9
0 16 9 16 20 0 12 7 20 18 21 11 0 12 2 4 6 -10 4 -9 8 5 19 17 12 16 13 -5 7
-21 -5 -19 -1 12 32 20 21 36 42 36 46 0 5 5 9 11 9 6 0 8 -7 4 -17 -4 -11 -3
-14 3 -8 16 18 43 97 31 89 -9 -5 -10 -2 -6 10 4 10 7 26 7 37 0 12 7 19 20
19 11 0 20 7 20 15 0 15 -52 21 -132 15 -26 -1 -28 1 -28 39 0 46 25 59 35 18
8 -32 45 -34 45 -2 0 18 7 24 34 29 18 4 42 4 52 0 15 -4 16 -3 4 4 -8 6 -116
12 -239 14 l-223 3 -39 -33z"/>
<path d="M4666 3602 c-3 -4 12 -8 32 -9 28 0 32 1 17 7 -27 11 -43 12 -49 2z"/>
<path d="M4695 3501 c-3 -6 -12 -8 -18 -5 -7 4 -9 4 -5 -1 4 -4 2 -17 -4 -29
-11 -20 -10 -20 7 -6 17 14 18 13 12 -3 -4 -11 -3 -16 4 -12 6 4 8 14 4 23 -3
8 0 19 7 23 7 4 10 11 6 14 -3 4 -9 1 -13 -4z"/>
<path d="M4626 3445 c4 -8 11 -15 16 -15 6 0 5 6 -2 15 -7 8 -14 15 -16 15 -2
0 -1 -7 2 -15z"/>
<path d="M4655 3410 c-4 -6 -11 -7 -17 -4 -7 4 -8 2 -4 -5 6 -9 11 -9 22 0 14
11 18 19 10 19 -3 0 -8 -5 -11 -10z"/>
<path d="M4620 3374 c0 -8 5 -12 10 -9 6 4 8 11 5 16 -9 14 -15 11 -15 -7z"/>
<path d="M4585 3299 c-4 -6 -5 -12 -2 -15 2 -3 7 2 10 11 7 17 1 20 -8 4z"/>
<path d="M4488 3213 c-10 -2 -18 -9 -18 -14 0 -13 13 -11 36 6 19 14 14 17
-18 8z"/>
<path d="M4025 6063 c-165 -37 -420 -99 -490 -118 -49 -13 -142 -36 -205 -49
-108 -24 -266 -59 -630 -142 -85 -20 -197 -45 -249 -56 l-93 -21 6 -36 c10
-62 49 -124 97 -154 90 -55 317 -60 619 -12 189 30 876 237 1003 301 29 15 33
39 21 103 -5 26 -10 30 -28 25 -12 -3 -30 -6 -39 -8 -9 -1 -19 -5 -23 -8 -3
-4 -12 -4 -20 -1 -8 3 -14 0 -14 -7 0 -7 -8 -10 -20 -7 -11 3 -20 1 -20 -4 0
-5 -9 -9 -21 -9 -28 0 -173 -42 -177 -51 -2 -5 -10 -5 -19 -2 -10 4 -14 2 -10
-4 5 -7 -1 -9 -15 -5 -14 3 -19 1 -14 -6 4 -6 -1 -11 -11 -11 -17 0 -191 -37
-221 -46 -7 -3 -14 -4 -17 -5 -3 0 -18 -6 -33 -13 -15 -8 -63 -22 -107 -31
-44 -10 -107 -26 -140 -36 -55 -16 -172 -40 -365 -75 -75 -14 -182 -25 -254
-27 -32 -1 -44 4 -68 30 -15 18 -28 36 -28 40 0 5 35 14 78 21 42 7 145 30
227 51 83 21 179 44 215 50 108 19 386 81 540 120 329 85 576 154 588 163 6 5
12 18 12 28 0 19 -26 23 -75 12z"/>
<path d="M6793 5581 c-147 -67 -215 -243 -147 -379 14 -29 29 -52 32 -52 4 0
40 62 81 138 41 75 101 174 133 219 32 44 58 84 58 87 0 14 -118 4 -157 -13z
m32 -70 c6 -11 -66 -82 -77 -75 -14 9 -9 40 10 56 28 25 58 33 67 19z"/>
<path d="M6960 5570 c0 -23 -13 -46 -77 -133 -23 -32 -70 -110 -105 -174 -34
-63 -68 -118 -75 -120 -20 -8 -15 -20 17 -43 l29 -21 16 37 c8 21 13 47 10 58
-4 13 -3 16 2 9 6 -9 12 -7 22 8 8 14 8 19 1 14 -15 -10 40 90 115 205 99 152
102 159 85 170 -24 16 -40 11 -40 -10z"/>
<path d="M7011 5507 c-13 -23 -47 -78 -75 -122 -28 -44 -78 -133 -111 -198
-51 -99 -58 -119 -45 -127 8 -5 18 -10 22 -10 3 0 20 35 38 78 32 77 143 265
205 347 32 41 33 44 16 59 -10 9 -19 16 -22 16 -2 0 -15 -19 -28 -43z"/>
<path d="M7025 5387 c-38 -60 -100 -162 -137 -226 l-67 -116 47 -3 c117 -9
209 42 266 148 24 44 29 65 28 120 0 66 -29 157 -56 178 -7 7 -33 -25 -81
-101z"/>
<path d="M7798 5433 c12 -2 32 -2 45 0 12 2 2 4 -23 4 -25 0 -35 -2 -22 -4z"/>
<path d="M5531 5354 c0 -11 3 -14 6 -6 3 7 2 16 -1 19 -3 4 -6 -2 -5 -13z"/>
<path d="M2042 5299 c-12 -5 -29 -6 -38 -2 -8 3 -25 -4 -37 -15 -12 -11 -40
-23 -62 -26 -49 -6 -75 -15 -75 -27 0 -12 11 -11 85 7 39 10 62 20 58 27 -3 5
-2 7 4 4 8 -5 113 20 113 28 0 9 -28 11 -48 4z"/>
<path d="M5524 5256 c-3 -8 -4 -27 -2 -43 3 -23 5 -20 9 15 5 43 2 53 -7 28z"/>
<path d="M2305 5210 c-16 -4 -59 -8 -95 -9 -38 -1 -78 -8 -95 -17 -16 -9 -102
-41 -190 -71 -88 -30 -161 -59 -163 -64 -2 -5 -10 -9 -18 -9 -8 0 -22 -4 -32
-9 -9 -5 -32 -15 -50 -22 -18 -6 -31 -13 -29 -16 6 -5 292 75 476 134 172 54
306 111 196 83z"/>
<path d="M3260 5179 c-14 -4 -45 -15 -70 -23 -43 -14 -44 -14 -13 -15 17 -1
35 4 38 9 3 6 14 10 23 10 9 1 31 7 47 15 33 15 15 18 -25 4z"/>
<path d="M3663 5121 c-50 -20 -98 -42 -106 -49 -8 -7 -45 -19 -83 -28 -38 -9
-126 -40 -197 -70 -70 -30 -130 -54 -135 -54 -4 0 -54 -17 -112 -39 -58 -21
-143 -51 -190 -66 -47 -15 -98 -33 -115 -40 -26 -11 -88 -34 -315 -113 -57
-20 -353 -138 -495 -197 -44 -18 -112 -44 -151 -58 -106 -38 -202 -83 -235
-112 -31 -25 -30 -28 6 -26 11 0 -7 -10 -40 -24 -33 -13 -65 -24 -72 -24 -13
-1 -152 -61 -243 -105 -30 -15 -104 -47 -163 -73 -79 -33 -115 -54 -134 -78
-73 -91 -13 -91 312 1 72 20 153 42 180 49 95 25 230 57 295 71 36 8 88 23
115 34 28 11 80 26 116 34 67 15 225 74 394 147 11 5 58 20 105 33 47 14 94
28 105 32 15 5 17 4 9 -5 -6 -6 -53 -27 -105 -45 -52 -19 -159 -61 -239 -93
-80 -33 -174 -67 -210 -77 -36 -10 -105 -34 -155 -53 -49 -19 -137 -52 -195
-74 -167 -64 -394 -161 -411 -176 -8 -7 -21 -13 -27 -13 -7 0 -12 -11 -12 -25
0 -14 5 -25 11 -25 6 0 9 -7 5 -15 -4 -10 5 -22 27 -35 17 -11 26 -20 18 -20
-8 0 -12 -2 -9 -5 11 -11 287 82 488 165 69 29 181 71 250 95 135 46 414 149
655 240 83 31 166 61 185 67 44 13 312 118 325 128 6 4 48 22 95 40 160 61
260 104 260 112 0 4 9 8 20 8 11 0 20 6 20 13 0 9 2 9 9 -1 6 -10 11 -9 22 4
9 12 10 15 2 10 -7 -4 -13 -5 -13 -2 0 3 15 12 33 21 66 31 144 132 120 155
-13 13 -308 -85 -588 -195 -66 -26 -183 -69 -260 -95 -77 -26 -178 -62 -225
-79 -73 -27 -81 -28 -58 -10 32 26 125 67 272 120 60 21 114 43 120 48 6 5 40
20 76 34 36 13 85 34 110 45 83 38 125 55 133 54 4 -1 7 2 7 6 0 4 8 8 18 9 9
1 78 28 152 61 74 32 167 71 205 85 63 24 72 31 90 69 16 35 37 128 29 128 -1
0 -24 -9 -49 -20 -26 -11 -95 -36 -153 -55 -58 -20 -130 -47 -160 -61 -30 -14
-56 -24 -58 -21 -2 2 35 23 83 47 80 39 121 55 283 111 29 11 58 25 62 32 13
20 10 87 -4 86 -7 -1 -54 -18 -105 -38z m-798 -401 c-3 -5 -16 -10 -28 -9 -21
0 -21 1 -2 9 28 12 37 12 30 0z m-454 -155 c-19 -9 -52 -18 -75 -20 -37 -5
-38 -4 -16 6 31 14 79 27 105 28 13 0 8 -5 -14 -14z"/>
<path d="M2863 5060 c-39 -10 -96 -30 -125 -43 -29 -14 -120 -47 -203 -75
-257 -86 -300 -102 -312 -119 -7 -9 -13 -13 -13 -9 0 5 -7 3 -15 -4 -8 -6 -19
-9 -24 -6 -5 4 -14 -1 -19 -10 -7 -12 -17 -15 -39 -11 -42 8 -188 -43 -187
-66 1 -9 -4 -17 -12 -17 -8 0 -14 -7 -14 -15 0 -9 -6 -12 -15 -9 -8 4 -15 1
-15 -6 0 -7 8 -10 18 -7 225 67 573 192 688 247 35 16 68 30 73 30 5 0 11 4
13 9 4 12 125 64 234 100 99 34 79 40 -33 11z m-898 -340 c3 -5 -1 -10 -9 -10
-9 0 -16 5 -16 10 0 6 4 10 9 10 6 0 13 -4 16 -10z"/>
<path d="M5100 5001 c-14 -13 -24 -27 -23 -32 2 -4 -3 -6 -11 -3 -8 3 -17 0
-21 -6 -15 -24 6 -22 44 4 22 16 45 25 50 21 15 -8 13 6 -2 25 -10 13 -15 12
-37 -9z"/>
<path d="M5148 5023 c6 -2 18 -2 25 0 6 3 1 5 -13 5 -14 0 -19 -2 -12 -5z"/>
<path d="M4987 4934 c-21 -8 -66 -14 -101 -15 l-63 -2 -16 -49 c-9 -27 -13
-56 -10 -64 3 -8 1 -14 -4 -14 -5 0 -17 -13 -26 -30 -13 -22 -15 -35 -8 -48 7
-13 7 -22 -1 -30 -9 -9 -9 -12 0 -12 7 0 13 5 13 10 1 6 2 16 3 23 1 6 -2 15
-7 18 -4 3 -5 13 -1 22 4 12 18 17 49 17 l42 0 -2 38 c-4 62 -4 64 -19 59 -10
-4 -14 0 -13 14 1 21 4 22 61 19 27 -1 36 2 31 10 -6 9 6 11 46 6 37 -3 46 -2
29 3 l-25 9 26 1 c15 1 29 8 33 16 3 8 4 14 3 14 -1 -1 -19 -8 -40 -15z m-137
-115 c0 -6 -4 -7 -10 -4 -5 3 -10 11 -10 16 0 6 5 7 10 4 6 -3 10 -11 10 -16z
m-10 -28 c0 -4 -7 -8 -15 -8 -16 0 -20 9 -9 20 8 8 24 -1 24 -12z"/>
<path d="M2118 4793 c7 -3 16 -2 19 1 4 3 -2 6 -13 5 -11 0 -14 -3 -6 -6z"/>
<path d="M4724 4668 c-10 -24 -21 -45 -25 -48 -20 -15 -70 -113 -63 -120 16
-16 244 -61 283 -55 20 3 30 2 23 -1 -22 -10 -2 -24 25 -18 20 5 24 4 18 -6
-6 -10 -4 -12 9 -7 10 4 21 7 24 7 4 1 -9 8 -28 17 -27 12 -31 17 -17 20 12 3
16 10 13 20 -3 8 -6 19 -6 24 0 5 -3 8 -7 8 -25 -4 -33 4 -33 35 0 26 -5 35
-21 39 -15 4 -20 11 -15 22 3 9 4 26 0 38 -4 20 -11 22 -67 22 -52 0 -62 -3
-61 -17 2 -16 0 -16 -21 0 -18 13 -21 21 -13 35 5 10 8 21 5 23 -2 2 -12 -15
-23 -38z m30 -34 c3 -8 2 -12 -4 -9 -6 3 -10 10 -10 16 0 14 7 11 14 -7z"/>
<path d="M1620 4605 c-47 -13 -101 -31 -120 -40 l-35 -16 55 6 c72 8 210 45
210 56 0 5 -7 5 -17 2 -11 -4 -14 -3 -9 5 4 7 6 12 4 11 -2 0 -41 -11 -88 -24z"/>
<path d="M3410 4428 c-47 -16 -143 -52 -213 -79 -143 -55 -383 -145 -672 -251
-708 -260 -743 -273 -820 -302 -38 -15 -115 -43 -169 -63 -55 -19 -147 -55
-205 -80 -58 -25 -170 -71 -249 -104 -79 -33 -171 -73 -205 -90 -33 -16 -106
-48 -162 -70 -166 -65 -168 -74 -5 -30 310 84 377 103 467 134 54 19 150 47
213 62 63 15 156 38 205 51 289 75 371 95 394 92 28 -3 32 -18 10 -30 -28 -15
-208 -86 -319 -126 -649 -235 -781 -287 -972 -380 -53 -25 -94 -50 -92 -54 2
-3 -4 -9 -13 -11 -15 -4 -15 -5 2 -6 11 0 58 13 105 30 47 17 164 55 260 85
171 53 251 80 515 171 225 78 258 90 328 117 37 14 72 26 78 26 18 0 -10 -28
-34 -36 -12 -3 -51 -19 -87 -34 -36 -16 -132 -54 -215 -84 -82 -30 -222 -82
-310 -116 -88 -34 -203 -77 -256 -95 -53 -19 -152 -57 -220 -85 -68 -28 -152
-60 -186 -71 -89 -28 -88 -39 4 -39 79 0 118 8 278 53 50 14 144 40 210 57
141 37 344 98 725 217 453 141 988 322 1125 381 39 16 103 40 143 52 101 29
143 69 199 186 24 50 43 94 43 96 0 3 -49 -12 -108 -32 -59 -21 -128 -41 -152
-44 -43 -6 18 22 220 102 52 20 87 66 97 125 3 22 36 100 72 173 37 74 64 134
61 133 -3 -1 -43 -14 -90 -31z"/>
<path d="M5050 4430 c-23 -7 -23 -8 -3 -9 12 -1 25 4 28 9 3 6 5 10 3 9 -2 -1
-14 -5 -28 -9z"/>
<path d="M5018 4403 c7 -3 16 -2 19 1 4 3 -2 6 -13 5 -11 0 -14 -3 -6 -6z"/>
<path d="M5470 4400 c-14 -4 -38 -13 -55 -20 -16 -7 -34 -12 -38 -11 -15 3
-67 -33 -67 -47 0 -9 -7 -11 -22 -7 -23 6 -23 6 -3 -10 23 -18 51 -15 47 6 -2
8 0 11 4 6 4 -4 17 2 29 13 12 11 53 34 91 50 64 27 72 39 14 20z"/>
<path d="M5080 4390 c-9 -6 -10 -10 -3 -10 6 0 15 5 18 10 8 12 4 12 -15 0z"/>
<path d="M5849 4078 c-2 -93 1 -181 6 -187 3 -2 5 53 5 122 0 129 -9 179 -11
65z"/>
<path d="M5801 3974 c0 -11 3 -14 6 -6 3 7 2 16 -1 19 -3 4 -6 -2 -5 -13z"/>
<path d="M5785 3940 c-4 -6 -10 -8 -14 -6 -4 3 -18 -41 -30 -97 -13 -56 -29
-118 -36 -138 -10 -30 -10 -36 2 -36 8 0 12 6 9 14 -3 7 -1 13 4 13 6 0 10 -7
10 -15 0 -9 6 -12 16 -8 14 5 14 7 1 15 -10 5 -14 20 -12 44 3 40 20 57 46 44
15 -8 16 -4 13 38 -3 44 -2 46 13 27 15 -19 15 -19 9 7 -7 30 2 61 15 52 10
-6 0 25 -14 44 -11 15 -24 16 -32 2z m-6 -110 c0 -10 -3 -8 -9 5 -12 27 -12
43 0 25 5 -8 9 -22 9 -30z"/>
<path d="M1125 3811 c-6 -5 -19 -11 -30 -14 -16 -4 -14 -5 6 -6 15 0 32 6 39
14 13 16 0 21 -15 6z"/>
<path d="M5836 3723 c-4 -9 -1 -20 6 -25 10 -6 10 -8 1 -8 -7 0 -13 -5 -13
-11 0 -27 25 1 27 29 1 34 -11 43 -21 15z"/>
<path d="M2965 3644 c-82 -31 -224 -82 -315 -114 -91 -32 -257 -90 -370 -130
-113 -40 -243 -85 -290 -101 -47 -15 -159 -56 -250 -89 -91 -34 -219 -81 -285
-105 -66 -24 -187 -68 -270 -98 -232 -84 -465 -185 -465 -201 0 -19 102 5 328
77 130 42 293 92 362 112 69 20 163 49 210 65 47 16 150 47 230 70 229 65 339
99 430 132 47 17 135 48 196 68 61 21 139 56 173 79 71 46 178 74 254 68 59
-5 91 11 146 76 50 59 97 147 79 147 -7 -1 -80 -26 -163 -56z"/>
<path d="M5769 3674 c-9 -8 -24 -17 -34 -18 -11 -2 -21 -8 -23 -14 -2 -8 12
-7 45 3 26 8 51 15 56 15 4 0 7 7 7 15 0 20 -31 19 -51 -1z"/>
<path d="M5680 3635 c-8 -9 -8 -15 -2 -15 12 0 26 19 19 26 -2 2 -10 -2 -17
-11z"/>
<path d="M2175 3145 l-30 -13 26 -1 c15 -1 29 6 33 14 3 8 4 15 3 15 -1 -1
-15 -7 -32 -15z"/>
<path d="M2040 3109 c-47 -16 -132 -45 -190 -63 -58 -18 -134 -45 -170 -59
-152 -58 -321 -120 -400 -147 -125 -42 -286 -112 -300 -130 -17 -22 -163 -76
-225 -83 -16 -2 -39 -8 -50 -14 -11 -6 -22 -11 -25 -11 -3 -1 -12 -3 -20 -5
-8 -3 -37 -11 -65 -18 -53 -13 -109 -38 -87 -39 34 -1 338 84 517 145 186 63
617 192 702 210 108 22 143 40 198 100 34 37 77 69 135 100 99 52 96 54 -20
14z"/>
<path d="M1720 2841 c-8 -5 -89 -34 -180 -64 -165 -56 -260 -93 -260 -104 0
-3 6 -3 14 0 8 3 17 0 19 -7 4 -10 -1 -12 -14 -9 -10 3 -25 1 -32 -5 -6 -6
-30 -13 -52 -16 l-40 -6 35 11 c19 7 29 14 23 16 -14 5 -106 -37 -98 -45 5 -6
167 22 338 58 153 32 174 43 247 129 38 47 38 64 0 42z"/>
<path d="M1605 2600 c-3 -5 -1 -10 4 -10 6 0 11 5 11 10 0 6 -2 10 -4 10 -3 0
-8 -4 -11 -10z"/>
<path d="M1522 2582 c-12 -2 -19 -8 -16 -14 4 -6 -2 -8 -17 -3 -19 5 -21 4 -9
-5 12 -9 9 -10 -13 -5 -19 4 -26 2 -22 -5 7 -11 78 -5 117 9 17 6 17 7 0 16
-9 6 -27 9 -40 7z"/>
<path d="M1420 2540 c0 -5 5 -10 11 -10 5 0 7 5 4 10 -3 6 -8 10 -11 10 -2 0
-4 -4 -4 -10z"/>
<path d="M1355 2520 l-20 -9 20 0 c11 0 29 4 40 9 l20 9 -20 0 c-11 0 -29 -4
-40 -9z"/>
</g>
</svg>
